<svg xmlns="http://www.w3.org/2000/svg" xmlns:xlink="http://www.w3.org/1999/xlink" viewBox="0,0,256,256" width="50px" height="50px" fill-rule="nonzero"><g fill="#ff0000" fill-rule="nonzero" stroke="none" stroke-width="1" stroke-linecap="butt" stroke-linejoin="miter" stroke-miterlimit="10" stroke-dasharray="" stroke-dashoffset="0" font-family="none" font-weight="none" font-size="none" text-anchor="none" style="mix-blend-mode: normal"><g transform="scale(5.12,5.12)"><path d="M25,2c-9.94141,0 -18,2.6875 -18,6v17c0,5.08203 5.41797,19.08203 18,22c12.58203,-2.91797 18,-16.91797 18,-22v-17c0,-3.3125 -8.05859,-6 -18,-6zM25,4c10.5,0 16,2.97266 16,4v17c0,4.13672 -4.33203,15.52344 -14,19.29688v-6.29687h-4v6.29688c-9.66797,-3.77344 -14,-15.16016 -14,-19.29687v-17c0,-1.02734 5.5,-4 16,-4zM17,11c-1.99609,0 -4.14453,0.87891 -6,4c1.95313,-1.35937 3.61328,-2 5,-2c2.6875,0 4.02734,3.14844 4.4375,3.5625c0.58594,0.58594 1.53516,0.58594 2.125,0c0.58594,-0.58594 0.58594,-1.53516 0,-2.125c-0.36719,-0.36328 -2.125,-3.4375 -5.5625,-3.4375zM33,11c-3.4375,0 -5.19531,3.07422 -5.5625,3.4375c-0.58594,0.58984 -0.58594,1.53906 0,2.125c0.58984,0.58594 1.53906,0.58594 2.125,0c0.41016,-0.41406 1.75,-3.5625 4.4375,-3.5625c1.38672,0 3.04688,0.64063 5,2c-1.85547,-3.12109 -4.00391,-4 -6,-4zM16,17c-1.64062,0 -3.08203,0.59375 -4,1.5c0.91797,0.90625 2.35938,1.5 4,1.5c1.64063,0 3.08203,-0.59375 4,-1.5c-0.91797,-0.90625 -2.35937,-1.5 -4,-1.5zM34,17c-1.64062,0 -3.08203,0.59375 -4,1.5c0.91797,0.90625 2.35938,1.5 4,1.5c1.64063,0 3.08203,-0.59375 4,-1.5c-0.91797,-0.90625 -2.35937,-1.5 -4,-1.5zM11,26l5,8h7l2,-2l2,2h7l5,-8l-6,5h-4l-3,-3h-2l-3,3h-4z"></path></g></g></svg>